<svg width="83" height="104" viewBox="0 0 83 104" fill="none" xmlns="http://www.w3.org/2000/svg">
<path d="M60.2002 102.1C59.8002 102.1 59.4002 101.9 59.3002 101.5L59.2002 101.3L59.0002 101.6C58.8002 101.9 58.5002 102.1 58.1002 102.1H50.9002C50.5002 102.1 50.1002 101.9 50.0002 101.5C49.9002 101.2 49.7002 100.8 49.6002 100.5L49.5002 100.3C49.4002 100 49.3002 99.7001 49.2002 99.4001L49.1002 99.2001C48.3002 96.9001 47.7002 94.5001 47.4002 93.0001C47.2002 93.2001 46.9002 93.4001 46.6002 93.4001C45.8002 93.4001 45.1002 93.3001 44.4002 93.2001L39.6002 101.6C39.4002 101.9 39.1002 102.1 38.7002 102.1H37.0002C36.6002 102.1 36.2002 101.8 36.1002 101.4L36.0002 101.1L35.7002 101.6C35.5002 101.9 35.2002 102.1 34.8002 102.1H28.9002C28.5002 102.1 28.2002 101.9 28.0002 101.5C27.6002 100.8 27.3002 100.1 27.0002 99.4001L26.8002 98.9001C25.6002 96.2001 24.6002 93.6001 23.8002 91.3001L23.0002 88.4001C23.0002 88.3001 22.9002 88.1001 22.9002 88.0001C22.8002 88.0001 22.7002 88.1001 22.6002 88.1001C22.5002 88.1001 22.5002 88.1001 22.4002 88.1001C22.1002 88.0001 21.8002 87.8001 21.7002 87.6001C21.2002 86.6001 20.7002 85.7001 20.1002 84.8001C19.1002 85.3001 18.2002 86.0001 17.3002 86.7001C17.1002 86.8001 16.9002 86.9001 16.7002 86.9001C16.6002 86.9001 16.6002 86.9001 16.5002 86.9001C16.2002 86.8001 15.9002 86.6001 15.8002 86.4001C15.6002 86.0001 15.4002 85.6001 15.3002 85.2001L15.2002 84.8001C15.1002 84.5001 15.0002 84.2001 14.9002 83.9001L14.8002 83.5001C14.7002 83.2001 14.6002 82.9001 14.5002 82.6001L14.1002 82.1001C13.7002 80.4001 13.5002 78.8001 13.5002 77.1001C13.5002 73.3001 14.5002 69.5001 16.5002 66.2001L17.4002 66.6001L16.6002 66.1001C16.8002 65.8001 17.0002 65.5001 17.2002 65.2001L17.4002 65.0001C17.6002 64.7001 17.8002 64.5001 18.0002 64.2001L18.1002 64.0001C19.5002 62.2001 21.1002 60.7001 23.0002 59.4001C19.7002 58.6001 16.7002 57.0001 14.1002 54.6001C13.6002 54.1001 13.1002 53.7001 12.7002 53.1001L12.6002 53.0001C12.2002 52.5001 11.8002 52.1001 11.4002 51.6001L11.2002 51.4001C10.9002 51.0001 10.6002 50.6001 10.4002 50.1001C10.3002 49.9001 10.2002 49.7001 10.1002 49.5001C10.0002 49.2001 9.8002 49.0001 9.7002 48.7001C9.2002 48.5001 9.1002 48.1001 8.9002 47.7001C8.8002 47.5001 8.70019 47.3001 8.60019 47.1001C8.40019 46.6001 8.3002 46.2001 8.1002 45.7001C8.1002 45.6001 8.0002 45.4001 8.0002 45.3001C7.8002 44.7001 7.7002 44.2001 7.6002 43.7001L7.5002 43.4001C7.4002 42.7001 7.3002 42.1001 7.2002 41.5001V41.4001C7.1002 40.7001 7.1002 40.0001 7.1002 39.4001C7.1002 35.0001 7.9002 30.8001 9.4002 26.7001C8.9002 26.4001 8.4002 26.0001 7.9002 25.6001L7.8002 25.5001C7.6002 25.3001 7.5002 25.2001 7.3002 25.0001L6.9002 24.6001C6.8002 24.5001 6.6002 24.3001 6.5002 24.2001L6.4002 24.1001C6.3002 24.0001 6.1002 23.8001 6.0002 23.6001L5.8002 23.4001L5.6002 23.2001C5.5002 23.1001 5.3002 22.9001 5.2002 22.7001C5.0002 22.5001 4.9002 22.3001 4.8002 22.1001L4.5002 21.6001C4.4002 21.5001 4.3002 21.3001 4.2002 21.2001C4.3002 21.1001 4.2002 21.0001 4.1002 20.9001L3.7002 20.1001C3.6002 19.9001 3.5002 19.8001 3.4002 19.6001C3.3002 19.4001 3.2002 19.1001 3.1002 18.9001L2.9002 18.4001C2.8002 18.2001 2.8002 18.1001 2.7002 17.9001C2.6002 17.6001 2.5002 17.4001 2.4002 17.1001L2.2002 16.6001C2.1002 16.4001 2.1002 16.3001 2.0002 16.1001C1.9002 15.7001 1.8002 15.4001 1.7002 15.1001C1.7002 15.1001 1.5002 14.3001 1.5002 14.2001C1.4002 13.6001 1.3002 12.9001 1.2002 12.3001C1.2002 11.9001 1.4002 11.5001 1.7002 11.3001L1.9002 11.2001C1.9002 11.2001 2.0002 11.2001 2.0002 11.1001C3.1002 10.5001 4.2002 10.1001 5.4002 9.7001C5.8002 9.6001 6.2002 9.5001 6.6002 9.4001H6.7002C7.1002 9.3001 7.4002 9.2001 7.8002 9.2001H8.2002C8.5002 9.1001 8.80019 9.1001 9.10019 9.1001C9.20019 9.1001 9.4002 9.1001 9.5002 9.1001H9.9002C10.1002 9.1001 10.2002 9.1001 10.4002 9.1001C10.8002 9.1001 11.3002 9.1001 11.7002 9.1001C15.0002 9.1001 18.3002 9.9001 21.2002 11.4001C21.5002 11.2001 21.7002 11.0001 22.0002 10.8001C21.1002 7.3001 22.0002 4.3001 23.0002 2.4001C23.4002 1.6001 24.2002 1.2001 25.0002 1.2001C25.1002 1.2001 25.3002 1.2001 25.4002 1.2001C25.6002 1.2001 25.9002 1.3001 26.1002 1.5001C26.1002 1.5001 26.2002 1.6001 26.3002 1.6001C26.5002 1.8001 26.7002 1.9001 26.9002 2.1001C28.5002 4.3001 29.8002 5.6001 30.7002 6.4001C34.3002 5.2001 38.0002 4.5001 41.8002 4.5001H46.8002C51.5002 4.5001 56.0002 5.4001 60.2002 7.2001C60.4002 7.0001 60.6002 6.7001 60.8002 6.5001C61.7002 5.8001 63.1002 4.4001 64.9002 2.0001C65.1002 1.8001 65.3002 1.6001 65.5002 1.5001C65.6002 1.5001 65.6002 1.4001 65.7002 1.4001C65.9002 1.3001 66.2002 1.2001 66.4002 1.1001C66.5002 1.1001 66.6002 1.1001 66.8002 1.1001C67.7002 1.1001 68.4002 1.6001 68.8002 2.3001C69.7002 4.0001 70.5002 6.6001 70.0002 9.7001C70.4002 9.7001 70.8002 9.7001 71.2002 9.7001C73.7002 9.7001 76.2002 10.2001 78.6002 11.1001C79.3002 11.4001 80.0002 11.7001 80.6002 12.0001C81.0002 12.2001 81.2002 12.6001 81.1002 13.0001C81.0002 13.5001 81.0002 14.0001 80.8002 14.6001C80.8002 14.7001 80.8002 14.8001 80.8002 14.8001C80.8002 14.9001 80.8002 14.9001 80.8002 15.0001L79.8002 14.9001L80.8002 15.2001C80.7002 15.6001 80.6002 16.0001 80.5002 16.3001C80.5002 16.3001 80.4002 16.5001 80.4002 16.6001C80.4002 16.6001 80.4002 16.7001 80.3002 16.7001C80.2002 17.1001 80.0002 17.6001 79.8002 18.0001V18.1001C79.8002 18.2001 79.8002 18.2001 79.7002 18.3001C79.6002 18.5001 79.6002 18.6001 79.5002 18.8001L79.2002 19.1001C79.1002 19.3001 79.0002 19.6001 78.9002 19.8001C78.8002 20.0001 78.7002 20.1001 78.6002 20.3001L78.4002 20.7001C78.3002 20.9001 78.2002 21.0001 78.1002 21.2001C78.1002 21.3001 78.0002 21.3001 78.0002 21.4001C77.9002 21.6001 77.8002 21.7001 77.7002 21.9001L77.4002 22.1001C77.3002 22.2001 77.2002 22.4001 77.1002 22.5001C78.1002 24.3001 78.9002 26.2001 79.5002 28.1001C80.0002 29.7001 80.4002 31.3001 80.7002 32.9001C81.0002 34.6001 81.2002 36.3001 81.3002 37.9001C81.3002 38.4001 81.3002 38.8001 81.3002 39.2001C81.3002 39.3001 81.3002 39.4001 81.3002 39.5001C81.6002 40.6001 81.7002 41.6001 81.7002 42.7001V45.2001C81.7002 53.3001 75.0002 59.9001 66.8002 59.9001H66.4002C66.9002 60.5001 67.4002 61.0001 67.8002 61.6001C67.8002 61.6001 68.0002 61.9001 68.1002 62.0001C68.3002 62.2001 68.4002 62.4001 68.6002 62.7001C68.8002 63.0001 69.0002 63.3001 69.1002 63.5001C69.2002 63.7001 69.4002 64.0001 69.5002 64.2001C69.7002 64.5001 69.8002 64.9001 70.0002 65.2001L70.1002 65.4001C70.2002 65.5001 70.2002 65.7001 70.3002 65.8001C70.6002 66.4001 70.8002 66.9001 71.0002 67.5001C71.2002 68.0001 71.3002 68.5001 71.5002 69.0001L71.6002 69.4001C71.7002 69.8001 71.8002 70.2001 71.9002 70.6001L72.0002 71.0001C72.2002 72.0001 72.3002 73.1001 72.4002 74.2001V74.4001C72.4002 75.0001 72.4002 75.4001 72.4002 75.9001V76.1001C72.3002 78.9001 71.7002 81.6001 70.7002 84.1001L70.6002 84.2001C70.4002 84.7001 70.2002 85.1001 70.0002 85.5001L69.8002 85.8001C69.6002 86.3001 69.3002 86.7001 69.1002 87.1001C68.9002 87.4001 68.7002 87.5001 68.4002 87.6001H68.3002C68.0002 87.6001 67.8002 87.5001 67.6002 87.3001C67.1002 86.8001 66.5002 86.3001 65.9002 85.8001C65.6002 85.6001 65.4002 85.4001 65.1002 85.2001C65.1002 85.7001 65.0002 86.1001 64.9002 86.6001V86.7001C64.8002 87.4001 64.7002 88.0001 64.6002 88.7001C64.1002 92.3001 63.4002 95.5001 62.9002 97.5001C62.7002 98.5001 62.5002 99.2001 62.3002 99.8001C62.2002 100.2 62.1002 100.5 62.0002 100.7L61.9002 100.9C61.8002 101.3 61.4002 101.7 60.9002 101.7H60.2002V102.1Z" fill="#333333"/>
<path d="M66.7 2C67.1 2 67.6 2.2 67.8 2.7C68.7 4.4 69.6 7.3 68.6 10.7C69.4 10.6 70.2 10.5 71.1 10.5C73.6 10.5 76 11 78.1 11.8C78.7 12.1 79.4 12.3 80 12.7C79.9 13.2 79.9 13.7 79.8 14.2C79.8 14.3 79.8 14.3 79.8 14.4C79.8 14.5 79.8 14.5 79.7 14.6C79.6 15 79.5 15.3 79.4 15.7C79.4 15.8 79.4 15.9 79.3 16V16.1C79.2 16.5 79 16.9 78.9 17.3C78.9 17.4 78.8 17.5 78.8 17.5C78.7 17.7 78.6 17.9 78.5 18.2C78.4 18.5 78.2 18.8 78.1 19.1C78 19.3 77.9 19.5 77.7 19.7C77.6 19.9 77.5 20.1 77.3 20.3L77.2 20.4C77.1 20.6 76.9 20.8 76.8 21C76.6 21.2 76.5 21.5 76.3 21.7C76.2 21.8 76.1 21.9 76 22.1C77.1 24 78 26 78.7 28.1V28.2C79.2 29.7 79.6 31.2 79.9 32.8V32.9C80.2 34.5 80.4 36.1 80.4 37.7C80.4 38.1 80.4 38.6 80.4 39C80.4 39.1 80.4 39.3 80.4 39.4C80.7 40.4 80.8 41.4 80.8 42.5V43.7V45C80.8 52.6 74.6 58.7 66.9 58.7H64.1C64.2 58.8 64.4 59 64.5 59.1L64.6 59.2L64.7 59.3C65.1 59.6 65.4 60 65.7 60.4C66.2 60.9 66.6 61.5 67.1 62.1C67.2 62.2 67.3 62.3 67.4 62.5C67.6 62.7 67.7 63 67.9 63.2C68.1 63.4 68.2 63.7 68.4 63.9C68.5 64.1 68.7 64.3 68.8 64.6C69 64.9 69.1 65.2 69.3 65.5C69.4 65.7 69.5 65.9 69.6 66C69.8 66.5 70.1 67 70.3 67.6C70.5 68.1 70.6 68.6 70.8 69.1C70.8 69.2 70.9 69.4 70.9 69.5C71 69.9 71.1 70.3 71.2 70.6C71.2 70.7 71.3 70.9 71.3 71C71.5 72 71.6 73 71.7 74C71.7 74.1 71.7 74.1 71.7 74.2C71.7 74.7 71.7 75.1 71.7 75.6C71.7 75.7 71.7 75.7 71.7 75.8C71.6 78.5 71.1 81.1 70.1 83.5C70.1 83.6 70 83.6 70 83.7C69.8 84.1 69.7 84.5 69.5 84.9C69.4 85 69.4 85.1 69.3 85.2C69.1 85.6 68.8 86.1 68.6 86.5C68 86 67.5 85.4 66.8 85C66.2 84.5 65.6 84.1 64.9 83.7C64.8 83.9 64.6 84 64.5 84.2C64.5 84.3 64.5 84.3 64.5 84.4C64.5 84.5 64.5 84.5 64.5 84.6C64.2 85.5 64.2 86.1 64.1 86.8V86.9C64 87.6 63.9 88.2 63.8 88.9C63.3 92.4 62.6 95.4 62.1 97.6C62.1 97.6 62.1 97.6 62.1 97.7C61.9 98.6 61.7 99.4 61.5 99.9C61.4 100.3 61.3 100.6 61.3 100.8C61.3 100.9 61.2 101 61.2 101V101.1H60.2L59.3 98.9L58.1 101.1H55H50.9C50.8 100.8 50.6 100.5 50.5 100.1C50.5 100 50.4 99.9 50.4 99.8C50.3 99.5 50.2 99.3 50.1 99C50.1 98.9 50.1 98.9 50 98.8C48.7 95.1 48 91.3 48 91.3C46.7 91.4 45.7 91.5 45 91.5H44.9C45 91.5 45.2 91.5 45.3 91.5C46.3 91.5 46.9 91.4 46.9 91.4L46.5 92.4C45.5 92.4 44.6 92.3 43.8 92.2L43.7 92.4L42.7 94.1L41.2 96.7L38.7 101.1H37L36.2 98.7L34.8 101.1H28.9C28.5 100.4 28.2 99.7 27.9 99C27.8 98.8 27.8 98.7 27.7 98.5C26.3 95.4 25.4 92.9 24.7 91L23.9 88.1C23.6 87.1 23.6 86.5 23.6 86.5L23.4 86.4V86.3C23.1 86.6 22.8 86.8 22.5 87C21.9 85.7 21.1 84.5 20.3 83.4C19 84.1 17.7 84.9 16.6 85.8C16.4 85.4 16.2 85 16.1 84.6C16.1 84.5 16 84.4 16 84.2C15.9 83.9 15.8 83.6 15.7 83.3C15.7 83.2 15.6 83 15.6 82.9C15.5 82.6 15.4 82.3 15.3 82C15.3 81.9 15.2 81.8 15.2 81.6C14.8 80.1 14.6 78.5 14.6 76.8C14.6 73 15.6 69.5 17.5 66.4C17.5 66.4 17.5 66.3 17.6 66.3C17.8 66 17.9 65.7 18.1 65.5C18.1 65.4 18.2 65.4 18.2 65.3C18.4 65 18.6 64.8 18.7 64.5C18.8 64.4 18.8 64.4 18.9 64.3C20.7 62 23 60.1 25.6 58.7V58.6C21.4 58.1 17.7 56.3 14.7 53.6C14.2 53.2 13.8 52.7 13.3 52.2C13.3 52.2 13.3 52.2 13.2 52.1C12.8 51.7 12.4 51.2 12.1 50.7C12 50.6 12 50.6 11.9 50.5C11.6 50.1 11.4 49.7 11.1 49.3C11 49.1 10.9 48.9 10.8 48.8C10.7 48.6 10.5 48.3 10.4 48.1C10.2 47.7 10 47.4 9.9 47C9.8 46.8 9.7 46.6 9.6 46.4C9.4 46 9.3 45.5 9.1 45.1C9.1 44.9 9 44.8 9 44.6C8.9 44.1 8.7 43.6 8.6 43.1C8.6 43 8.6 42.9 8.5 42.8C8.4 42.2 8.3 41.7 8.2 41.1C8.2 41 8.2 41 8.2 40.9C8.1 40.3 8.1 39.6 8.1 39C8.1 34.3 9 29.9 10.7 25.8C9.9 25.5 9.2 25 8.6 24.4C8.4 24.2 8.2 24 8 23.8C7.8 23.6 7.6 23.4 7.4 23.2C7.2 23 7 22.8 6.8 22.5C6.6 22.3 6.4 22.1 6.3 21.9C6.1 21.6 5.9 21.4 5.7 21.1C5.5 21.1 5.3 20.9 5.2 20.7C5.1 20.5 5 20.3 4.9 20.2C4.8 20.1 4.8 20 4.7 19.9C4.6 19.7 4.4 19.5 4.3 19.2C4.1 18.9 4 18.6 3.9 18.3C3.8 18.1 3.7 17.8 3.6 17.6C3.5 17.3 3.4 16.9 3.2 16.6C3.1 16.4 3 16.2 3 16C2.9 15.6 2.8 15.3 2.7 14.9C2.7 14.8 2.6 14.6 2.6 14.5C2.6 14.4 2.6 14.4 2.5 14.3C2.4 13.7 2.3 13.1 2.2 12.5C2.3 12.5 2.3 12.4 2.4 12.4C3.4 11.9 4.5 11.4 5.7 11.1C5.7 11.1 5.7 11.1 5.8 11.1C6.2 11 6.5 10.9 6.9 10.8H7C7.3 10.7 7.7 10.6 8 10.6C8.1 10.6 8.2 10.6 8.3 10.5C8.6 10.1 8.9 10.1 9.2 10C9.4 10 9.6 10 9.8 9.9C10 9.9 10.2 9.9 10.5 9.8C10.9 9.8 11.3 9.8 11.8 9.8C15.3 9.8 18.6 10.7 21.4 12.3C22 11.8 22.6 11.4 23.2 11C22 7.4 23 4.4 23.9 2.7C24.1 2.2 24.6 2 25 2C25.1 2 25.1 2 25.2 2C25.3 2 25.5 2.1 25.6 2.1C25.6 2.1 25.7 2.1 25.7 2.2C25.8 2.3 25.9 2.4 26 2.5C27.8 4.9 29.2 6.3 30.2 7.2C30.3 7.2 30.3 7.3 30.3 7.3C33.8 6 37.7 5.3 41.7 5.3H46.7C51.6 5.3 56.3 6.4 60.5 8.3C60.5 8.3 60.6 8.3 60.6 8.4C60.8 8 61 7.5 61.4 7.2C62.4 6.4 63.8 4.9 65.6 2.5C65.7 2.4 65.8 2.3 65.9 2.2C65.9 2.2 66 2.2 66 2.1C66.1 2 66.3 2 66.4 2C66.6 2 66.7 2 66.7 2ZM66.7 0C66.5 0 66.3 0 66.2 0C65.8 0.1 65.5 0.200001 65.2 0.400001C65.1 0.400001 65.1 0.5 65 0.5C64.7 0.7 64.4 1 64.1 1.3C62.4 3.6 61 4.9 60.2 5.6C60.1 5.7 60 5.7 60 5.8C55.8 4.1 51.4 3.3 46.9 3.3H41.9C38.2 3.3 34.5 3.9 31 5C30.2 4.2 29.1 3 27.8 1.3C27.6 1 27.3 0.7 26.9 0.5C26.8 0.5 26.8 0.400001 26.7 0.400001C26.2 0.300001 25.9 0.1 25.5 0.1C25.3 0.1 25.1 0.1 25 0.1C23.8 0.1 22.7 0.800001 22.1 1.9C20.8 4.4 20.3 7.3 20.8 10C17.9 8.7 14.8 8 11.7 8C11.2 8 10.8 8 10.3 8C10.1 8 9.9 8 9.8 8H9.6H9.4C9.2 8 9.1 8 8.9 8C8.6 8 8.3 8.1 8 8.1H7.9C7.8 8.1 7.7 8.1 7.6 8.1C7.2 8.2 6.9 8.3 6.5 8.3C6.4 8.3 6.4 8.3 6.3 8.3C5.9 8.4 5.5 8.5 5.1 8.6H5C3.8 9 2.6 9.5 1.4 10.1H1.3C1.2 10.1 1.2 10.2 1.1 10.2C0.4 10.6 0 11.4 0 12.2C0.1 12.9 0.2 13.5 0.3 14.2C0.3 14.3 0.3 14.4 0.4 14.4C0.4 14.5 0.5 14.6 0.5 14.7V14.8L0.6 15C0.7 15.3 0.8 15.7 0.9 16V16.1C0.9 16.2 1 16.4 1.1 16.6L1.2 16.8L1.3 17C1.4 17.3 1.5 17.6 1.6 17.9C1.7 18.1 1.8 18.3 1.8 18.4L2.1 19.1L2.2 19.3C2.3 19.6 2.4 19.8 2.6 20.1C2.6 20.1 2.6 20.1 2.6 20.2C2.7 20.4 2.8 20.5 2.9 20.7L3 20.9V21C3.1 21.1 3.1 21.2 3.2 21.3C3.2 21.2 3.2 21.3 3.2 21.3C3.3 21.4 3.4 21.6 3.4 21.7C3.4 21.7 3.4 21.7 3.4 21.8C3.5 22 3.6 22.1 3.7 22.2L3.8 22.4C3.8 22.4 3.8 22.4 3.8 22.5L3.9 22.7C4.1 22.9 4.2 23.2 4.4 23.4C4.5 23.6 4.7 23.7 4.8 23.9L5.2 24.1L5.4 24.3C5.5 24.5 5.7 24.6 5.8 24.8C5.8 24.8 5.8 24.8 5.9 24.9C5.9 24.9 5.9 24.9 6 25C6 25.1 6.2 25.2 6.3 25.4L6.5 25.6L6.7 25.8C6.8 25.9 7 26.1 7.2 26.2C7.5 26.5 7.8 26.7 8.2 27C6.8 30.9 6.1 35 6.1 39.3C6.1 40 6.1 40.6 6.2 41.4V41.6C6.3 42.2 6.4 42.8 6.5 43.5V43.6C6.5 43.7 6.5 43.8 6.5 43.9C6.6 44.4 6.8 45 6.9 45.6C6.9 45.8 7 45.9 7.1 46.1C7.3 46.6 7.4 47.1 7.6 47.5C7.7 47.7 7.8 47.9 7.9 48.2C8.1 48.6 8.3 49 8.5 49.4C8.6 49.7 8.8 49.9 8.9 50.2C9 50.4 9.1 50.6 9.3 50.8C9.6 51.3 9.9 51.7 10.2 52.1L10.3 52.3V52.4C10.7 52.9 11.1 53.4 11.5 53.9L11.6 54C12.1 54.5 12.6 55 13.1 55.5C15.3 57.5 17.8 59 20.5 59.9C19.2 60.9 18.1 62.1 17.1 63.4H17.2L17.1 63.6C16.9 63.9 16.7 64.1 16.5 64.4L16.3 64.6C16.1 64.9 15.9 65.2 15.7 65.5V65.6C13.6 69.1 12.6 73 12.6 77C12.6 78.8 12.8 80.5 13.2 82.3C13.2 82.4 13.2 82.5 13.3 82.6V82.7C13.4 83 13.5 83.4 13.6 83.7C13.6 83.9 13.7 84 13.7 84.1C13.8 84.4 13.9 84.7 14 85V85.1C14 85.2 14.1 85.3 14.1 85.4C14.3 85.9 14.5 86.3 14.7 86.7C15 87.2 15.5 87.6 16.1 87.8C16.2 87.8 16.4 87.8 16.5 87.8C17 87.8 17.4 87.6 17.8 87.3C18.4 86.8 19 86.4 19.6 86C20 86.6 20.3 87.2 20.6 87.9C20.9 88.4 21.4 88.8 21.9 89L22.6 91.6C22.6 91.6 22.6 91.6 22.6 91.7C23.4 94.1 24.4 96.7 25.6 99.4L25.8 99.9C26.1 100.6 26.4 101.3 26.8 102C27.1 102.7 27.8 103.1 28.6 103.1H34.5C34.9 103.1 35.3 103 35.6 102.8C35.9 103 36.3 103.1 36.7 103.1H38.4C39.1 103.1 39.8 102.7 40.1 102.1L42.6 97.7L44.1 95.1L44.6 94.3C45.1 94.3 45.6 94.4 46.2 94.4H46.3H46.4C46.7 95.7 47.2 97.6 47.9 99.5V99.6V99.7C48 100 48.1 100.3 48.2 100.5V100.6L48.3 100.8C48.4 101.2 48.6 101.5 48.7 101.8C49 102.5 49.7 103 50.5 103H54.6H57.7C58.1 103 58.4 102.9 58.7 102.7C59 102.9 59.4 103 59.7 103H61.2C62.1 103 62.9 102.4 63.1 101.6V101.5L63.2 101.2C63.3 101 63.4 100.7 63.5 100.3C63.5 100.3 63.5 100.3 63.5 100.2C63.7 99.5 63.9 98.8 64.1 98V97.9C64.6 95.9 65.3 92.7 65.8 89C65.9 88.4 66 87.8 66 87.2C66.3 87.5 66.7 87.8 67 88.1C67.4 88.5 67.9 88.7 68.4 88.7C68.5 88.7 68.6 88.7 68.7 88.7C69.3 88.6 69.8 88.3 70.2 87.7C70.4 87.3 70.7 86.8 71 86.3C71 86.2 71.1 86.1 71.1 86V85.9C71.3 85.5 71.5 85.1 71.7 84.6V84.5L71.8 84.4C72.9 81.7 73.5 78.9 73.6 76V75.9C73.6 75.9 73.6 75.9 73.6 75.8C73.6 75.3 73.6 74.8 73.6 74.3V74.2V74C73.5 72.9 73.4 71.8 73.2 70.7C73.2 70.6 73.2 70.5 73.1 70.4V70.3C73 69.9 72.9 69.5 72.8 69.1V69C72.8 68.9 72.7 68.8 72.7 68.6C72.5 68 72.4 67.5 72.2 67C72 66.5 71.8 65.9 71.5 65.3C71.4 65.2 71.4 65 71.3 64.9L71.2 64.7C71 64.3 70.8 64 70.7 63.7C70.6 63.5 70.4 63.2 70.3 63C70.1 62.7 70 62.5 69.8 62.2L69.7 62.1C69.5 61.9 69.4 61.6 69.2 61.4C69.1 61.3 69.1 61.2 69 61.1L68.9 61C68.8 60.9 68.8 60.8 68.7 60.7C76.7 59.9 83 53.2 83 45.1V43.8V42.6C83 41.5 82.9 40.4 82.6 39.3C82.6 39.2 82.6 39.2 82.6 39.1C82.6 38.7 82.6 38.2 82.6 37.8C82.5 36.1 82.4 34.3 82 32.7V32.6C81.7 31 81.3 29.3 80.8 27.8C80.8 27.8 80.8 27.8 80.8 27.7C80.2 25.9 79.5 24.1 78.6 22.4L78.7 22.2L78.8 22C78.9 21.8 79 21.7 79.1 21.5C79.1 21.5 79.1 21.4 79.2 21.4C79.2 21.4 79.3 21.3 79.3 21.2C79.4 21.1 79.5 20.9 79.6 20.7L79.7 20.5L79.8 20.3C79.9 20.1 80 20 80.1 19.8C80.2 19.6 80.3 19.3 80.4 19.1L80.5 18.9L80.6 18.7C80.7 18.5 80.8 18.4 80.8 18.2C80.8 18.1 80.8 18.1 80.9 18V17.9C81.1 17.5 81.2 17 81.4 16.6V16.5C81.4 16.4 81.5 16.3 81.5 16.2V16.1C81.6 15.7 81.7 15.3 81.8 14.9V14.8C81.8 14.7 81.8 14.6 81.9 14.6C81.9 14.5 81.9 14.5 81.9 14.4C82 13.8 82.1 13.2 82.2 12.7C82.3 11.9 81.9 11.1 81.1 10.7C80.5 10.4 79.8 10 79 9.8C76.5 8.8 73.9 8.3 71.2 8.3C71.4 5.5 70.6 3.1 69.8 1.5C69.1 0.7 68 0 66.7 0Z" fill="#333333"/>
<path d="M64.7 84.0001C66 84.8001 67.2 85.8001 68.3 86.9001C71.6 81.4001 72.4 74.5001 70 68.0001C68.2 63.2001 65 59.4001 60.9 56.9001C55.4 62.8001 53.3 71.5001 56.3 79.6001C57.5 82.9001 59.4 85.6001 61.7 87.9001C62.7 86.4001 63.6 85.1001 64.7 84.0001Z" fill="#66DB00"/>
<path d="M61.8996 87.7001C58.4996 78.3001 60.1996 68.2001 65.6996 60.7001C64.2996 59.2001 62.6996 57.8 60.9996 56.8C55.4996 62.7 53.3996 71.4001 56.3996 79.5001C57.5996 82.8001 59.4996 85.6001 61.8996 87.7001C61.8996 87.8001 61.8996 87.8001 61.8996 87.7001Z" fill="#B2DAF7"/>
<path d="M61.0999 56.8C65.0999 59.3 68.3999 63.1001 70.1999 67.9001C72.5999 74.4001 71.6999 81.2 68.4999 86.8C67.3999 85.7 66.1999 84.8001 64.8999 83.9001C63.7999 85.1001 62.7999 86.4 61.9999 87.8C59.6999 85.6 57.7999 82.8001 56.5999 79.5001C53.4999 71.4001 55.5999 62.7 61.0999 56.8ZM61.0999 55.8C60.7999 55.8 60.5999 55.9001 60.3999 56.1001C54.3999 62.5001 52.5999 71.6001 55.5999 79.9001C56.7999 83.2001 58.6999 86.1001 61.2999 88.6001C61.4999 88.8001 61.6999 88.9001 61.9999 88.9001H62.0999C62.3999 88.9001 62.6999 88.7001 62.7999 88.4001C63.3999 87.3001 64.1999 86.3 64.9999 85.3C65.9999 86 66.8999 86.7001 67.7999 87.6001C67.9999 87.8001 68.1999 87.9001 68.4999 87.9001H68.5999C68.8999 87.9001 69.1999 87.7001 69.2999 87.4001C72.7999 81.4001 73.4999 74.2001 71.0999 67.7001C69.2999 62.8001 65.9999 58.8001 61.5999 56.0001C61.3999 55.9001 61.2999 55.8 61.0999 55.8Z" fill="#333333"/>
<path d="M60.9996 81.7C59.9996 82.1 58.9996 82.5 58.0996 83.1C59.0996 84.9 60.3996 86.5 61.8996 87.9C62.6996 86.5 63.6996 85.2 64.7996 84C66.0996 84.8 67.2996 85.8 68.3996 86.9C69.4996 85.1 70.2996 83.1 70.7996 81C67.5996 80.3 64.1996 80.5 60.9996 81.7Z" fill="#3A3A3A"/>
<path d="M61.9 87.7001C61.2 85.8001 60.7 83.8 60.4 81.8C59.6 82.1 58.8 82.5001 58 82.9001C58.2 83.3001 58.5 83.7001 58.8 84.1001C58.9 84.2001 59 84.3001 59 84.4001C59.2 84.7001 59.4 85.0001 59.6 85.2001C59.7 85.3001 59.8 85.4001 59.9 85.6001C60.1 85.9001 60.3 86.1001 60.5 86.4001C60.6 86.5001 60.7 86.6001 60.8 86.7001C61.2 87.2001 61.5 87.5001 61.9 87.7001C61.9 87.8001 61.9 87.8001 61.9 87.7001Z" fill="#3A3A3A"/>
<path d="M68.7004 80.6001C69.4004 80.7001 70.1004 80.7001 70.8004 80.9001C71.8004 76.8001 71.7004 72.3001 70.1004 68.0001C68.7004 64.2001 66.3004 61.0001 63.4004 58.6001C66.0004 61.3001 68.0004 64.6001 69.0004 68.5001C70.1004 72.6001 69.9004 76.8001 68.7004 80.6001Z" fill="#A3FD00"/>
<path d="M69.8002 84.1001C69.8002 84.0001 69.9002 84.0001 69.9002 83.9001C70.3002 82.9001 70.6002 81.9001 70.9002 80.9001C70.2002 80.8001 69.5002 80.7001 68.8002 80.6001C68.3002 82.2001 67.6002 83.8001 66.7002 85.3001C67.3002 85.8001 67.9002 86.3001 68.5002 86.8001C68.7002 86.4001 69.0002 85.9001 69.2002 85.5001C69.3002 85.4001 69.3002 85.3001 69.4002 85.2001C69.4002 84.8001 69.6002 84.4001 69.8002 84.1001Z" fill="#444242"/>
<path d="M60.2 101.6C60 101.6 59.8 101.5 59.7 101.3L59.2 100.1L58.5 101.4C58.4 101.6 58.2 101.7 58.1 101.7H50.9C50.7 101.7 50.5 101.6 50.4 101.4C48.6 97.2001 47.5 91.6001 47.5 91.5001C47.5 91.3001 47.5 91.1001 47.7 91.0001L64.3 80.0001C64.4 79.9001 64.5 79.9001 64.6 79.9001C64.7 79.9001 64.8 79.9001 64.8 80.0001C65 80.1001 65.1 80.3001 65.1 80.5001C64.8 91.2001 61.7 101.3 61.6 101.4C61.5 101.6 61.3 101.8 61.1 101.8H60.2V101.6Z" fill="#333333"/>
<path d="M64.5996 80.3C64.2996 91.1 61.1996 101.1 61.1996 101.1H60.1996L59.2996 98.9001L58.0996 101.1H50.8996C49.0996 96.9001 47.9996 91.3 47.9996 91.3L64.5996 80.3ZM64.5996 79.3C64.3996 79.3 64.1996 79.4001 63.9996 79.5001L47.3996 90.5001C47.0996 90.7001 46.8996 91.1001 46.9996 91.5001C46.9996 91.7001 48.1996 97.3001 49.8996 101.5C50.0996 101.9 50.3996 102.1 50.7996 102.1H57.9996C58.3996 102.1 58.6996 101.9 58.8996 101.6L59.0996 101.3L59.1996 101.5C59.3996 101.9 59.6996 102.1 60.0996 102.1H61.1996C61.5996 102.1 61.9996 101.8 62.1996 101.4C62.2996 101 65.2996 91.2001 65.6996 80.4001V80.3C65.5996 79.8 65.1996 79.3 64.5996 79.3Z" fill="#333333"/>
<path d="M48 91.3C48 91.3 49.1 96.9001 50.9 101.1H58.1L59.3 98.9001L60.2 101.1H61.2C61.2 101.1 64.3 91.1 64.6 80.3L48 91.3Z" fill="#A3FD00"/>
<path d="M63.8 88.9001C64.2 86.2001 64.5 83.3 64.6 80.3L48 91.3C48 91.3 49.1 96.9001 50.9 101.1H55C55 101.1 54.2 97.6001 53.5 94.0001C53.5 94.0001 59.4 92.9001 63.8 88.9001Z" fill="#66DB00"/>
<path d="M49.3994 96.7C49.7994 98.2 50.2994 99.7 50.8994 101.1H58.0994L59.2994 98.9L60.1994 101.1H61.1994C61.1994 101.1 61.6994 99.4 62.3994 96.7H49.3994Z" fill="#444242"/>
<path d="M36.9996 101.6C36.7996 101.6 36.5996 101.5 36.4996 101.3L35.9996 100L35.0996 101.4C34.9996 101.6 34.7996 101.6 34.6996 101.6H28.7996C28.5996 101.6 28.3996 101.5 28.3996 101.3C26.5996 97.7 25.1996 94.3001 24.1996 91.2001L23.3996 88.3C23.1996 87.6 23.0996 87.1 23.0996 86.8C22.9996 86.7 22.9996 86.6001 22.8996 86.5001L22.0996 83.8C22.0996 83.7 22.0996 83.7001 22.0996 83.6001L25.2996 55.7001C25.2996 55.4001 25.4996 55.3 25.7996 55.3H62.0996C62.2996 55.3 62.4996 55.4001 62.4996 55.6001C66.2996 63.0001 67.5996 69.8001 66.4996 75.9001C63.4996 91.3001 48.0996 92.0001 45.0996 92.0001C44.8996 92.0001 44.6996 92.0001 44.5996 92.0001L39.1996 101.4C39.0996 101.6 38.8996 101.7 38.7996 101.7H36.9996V101.6Z" fill="#333333"/>
<path d="M62.0996 55.7C65.1996 61.6 67.3996 68.7 65.9996 75.7C63.0996 90.5 48.6996 91.4 44.9996 91.4C44.4996 91.4 44.1996 91.4 44.1996 91.4L38.6996 101H36.9996L36.1996 98.6L34.7996 101H28.8996C26.7996 96.7 25.4996 93.4 24.6996 90.9L23.8996 88.1C23.5996 87.1 23.5996 86.5 23.5996 86.5L23.3996 86.4L22.5996 83.7L25.7996 55.7999H62.0996V55.7ZM62.0996 54.7H25.7996C25.2996 54.7 24.8996 55.1 24.7996 55.6L21.5996 83.5C21.5996 83.6 21.5996 83.8 21.5996 83.9L22.3996 86.6C22.3996 86.7 22.4996 86.9 22.5996 87C22.6996 87.3 22.6996 87.6999 22.8996 88.2999L23.6996 91.2C24.6996 94.4 26.0996 97.8 27.8996 101.4C28.0996 101.7 28.3996 102 28.7996 102H34.6996C35.0996 102 35.3996 101.8 35.5996 101.5L35.8996 101L35.9996 101.3C36.0996 101.7 36.4996 102 36.8996 102H38.5996C38.9996 102 39.2996 101.8 39.4996 101.5L44.6996 92.4C44.7996 92.4 44.8996 92.4 44.8996 92.4C47.9996 92.4 63.7996 91.6 66.7996 75.9C67.9996 69.7 66.6996 62.7 62.7996 55.2C62.7996 55 62.4996 54.7 62.0996 54.7Z" fill="#333333"/>
<path d="M62.0996 55.7H25.7996L22.5996 83.6L23.3996 86.2999L23.5996 86.4C23.5996 86.4 23.6996 86.9 23.8996 88L24.6996 90.9C25.4996 93.3 26.7996 96.7 28.8996 101H34.7996L36.1996 98.6L36.9996 101H38.6996L44.1996 91.4C44.1996 91.4 62.6996 92.6 65.9996 75.7C67.3996 68.8 65.1996 61.7 62.0996 55.7Z" fill="#A3FD00"/>
<path d="M38.3994 90.3C38.3994 90.3 38.8994 93.1001 42.6994 94.1001L43.7994 92.1001C42.3994 91.9001 40.0994 91.4 38.3994 90.3Z" fill="#66DB00"/>
<path d="M65.1996 63.6001C64.3996 60.9001 63.2996 58.2 62.0996 55.8H25.7996L22.5996 83.7001L23.3996 86.4001L23.5996 86.5001C23.5996 86.5001 23.6996 87.0001 23.8996 88.1001L24.6996 91.0001C25.4996 93.4001 26.7996 96.8001 28.8996 101.1H34.7996C34.7996 101.1 29.8996 92.4 28.4996 80.3C27.0996 68.2 42.1996 63.6001 65.1996 63.6001Z" fill="#66DB00"/>
<path d="M32.6992 96.7C33.7992 99.5 34.7992 101.1 34.7992 101.1L36.1992 98.7L36.9992 101.1H38.6992L41.1992 96.7H32.6992Z" fill="#444242"/>
<path d="M34.7998 101.1C34.7998 101.1 33.8998 99.5 32.6998 96.7H26.7998C27.3998 98 27.9998 99.5 28.7998 101.1H34.7998Z" fill="#3A3A3A"/>
<path d="M49.3994 96.7C49.5994 97.4 49.7994 98.1 50.0994 98.9C50.0994 99 50.0994 99 50.1994 99.1C50.2994 99.4 50.3994 99.6 50.4994 99.9C50.4994 100 50.5994 100.1 50.5994 100.2C50.6994 100.5 50.8994 100.9 50.9994 101.2H55.0994C55.0994 101.2 54.6994 99.2999 54.1994 96.7999H49.3994V96.7Z" fill="#3A3A3A"/>
<path d="M46.6 92.4001L47 91.4001C47 91.4001 43.2 91.9 38.5 90.3C38.4 90.3 39.8 92.1001 46.6 92.4001Z" fill="#333333"/>
<path d="M56.5008 85.8323C57.1986 85.2042 57.4947 84.3955 57.1622 84.0261C56.8297 83.6567 55.9944 83.8664 55.2966 84.4945C54.5989 85.1226 54.3028 85.9313 54.6353 86.3007C54.9678 86.6701 55.8031 86.4604 56.5008 85.8323Z" fill="#ECFFB8"/>
<path d="M63.6994 78.8998C61.8994 82.7998 58.3994 83.3998 57.9994 82.1998C57.5994 80.9998 59.1994 79.0998 60.1994 76.7998C61.1994 74.4998 61.6994 71.8998 62.7994 71.5998C63.8994 71.2998 65.4994 74.9998 63.6994 78.8998Z" fill="#ECFFB8"/>
<path d="M20.3 83.4999C21.2 84.5999 21.9 85.7999 22.5 87.0999C27 83.3999 29.9 77.6999 29.9 71.3999C29.9 66.6999 28.3 62.3999 25.6 58.8999C19.1 62.2999 14.5 69.0999 14.5 76.9999C14.5 80.1999 15.2 83.1999 16.6 85.7999C17.7 84.8999 18.9 84.0999 20.3 83.4999Z" fill="#A3FD00"/>
<path d="M16.6 85.7999C16.6 76.5999 21.3 68.4999 28.4 63.7999C27.7 61.9999 26.8 60.3999 25.6 58.8999C19.1 62.2999 14.5 69.0999 14.5 76.9999C14.5 80.1999 15.3 83.1999 16.6 85.7999C16.6 85.8999 16.6 85.8999 16.6 85.7999Z" fill="#66DB00"/>
<path d="M25.7 58.8999C28.4 62.2999 30 66.6999 30 71.3999C30 77.6999 27.1 83.3999 22.6 87.0999C22 85.7999 21.2 84.5999 20.4 83.4999C19.1 84.1999 17.8 84.9999 16.7 85.8999C15.4 83.1999 14.6 80.1999 14.6 77.0999C14.5 69.0999 19.1 62.2999 25.7 58.8999ZM25.7 57.8999C25.5 57.8999 25.4 57.8999 25.2 57.9999C18 61.6999 13.5 68.8999 13.5 76.9999C13.5 80.1999 14.2 83.2999 15.7 86.2999C15.8 86.5999 16.1 86.7999 16.4 86.7999C16.5 86.7999 16.5 86.7999 16.6 86.7999C16.8 86.7999 17.1 86.6999 17.2 86.5999C18.1 85.8999 19 85.1999 20 84.6999C20.6 85.5999 21.1 86.4999 21.6 87.4999C21.7 87.7999 22 87.9999 22.3 87.9999C22.4 87.9999 22.4 87.9999 22.5 87.9999C22.7 87.9999 23 87.8999 23.1 87.7999C28.1 83.6999 30.9 77.6999 30.9 71.2999C30.9 66.4999 29.3 61.9999 26.4 58.1999C26.3 58.0999 26 57.8999 25.7 57.8999Z" fill="#333333"/>
<path d="M17.6998 80.2998C16.6998 80.2998 15.6998 80.3998 14.7998 80.5998C15.0998 82.4998 15.6998 84.2998 16.4998 85.8998C17.5998 84.9998 18.8998 84.0998 20.1998 83.4998C21.0998 84.5998 21.7998 85.7998 22.3998 87.0998C23.8998 85.8998 25.2998 84.3998 26.3998 82.7998C23.8998 81.1998 20.8998 80.2998 17.6998 80.2998Z" fill="#444242"/>
<path d="M16.5998 85.7998C16.5998 83.8998 16.7998 82.0998 17.1998 80.2998C16.3998 80.2998 15.5998 80.3998 14.7998 80.4998C14.8998 80.8998 14.9998 81.3998 15.0998 81.7998C15.0998 81.8998 15.1998 81.9998 15.1998 82.1998C15.2998 82.4998 15.3998 82.7998 15.4998 83.0998C15.4998 83.1998 15.5998 83.3998 15.5998 83.4998C15.6998 83.7998 15.7998 84.0998 15.8998 84.3998C15.8998 84.4998 15.9998 84.5998 15.9998 84.7998C16.1998 85.0998 16.3998 85.4998 16.5998 85.7998C16.5998 85.8998 16.5998 85.8998 16.5998 85.7998Z" fill="#3A3A3A"/>
<path d="M20.0002 68.5C19.8002 68.5 19.6002 68.5 19.4002 68.5L19.2002 66.5C20.2002 66.3 21.1002 66.5 21.8002 67L20.6002 68.8C20.4002 68.7 20.2002 68.6 20.0002 68.5Z" fill="#66DB00"/>
<path d="M20.8002 74.2L20.2002 72.1C20.7002 71.9 21.1002 71.4 21.3002 70.7L23.3002 71.1C22.9002 72.6 21.9002 73.7 20.8002 74.2Z" fill="#66DB00"/>
<path d="M18.3994 71.7L16.9994 73.2C16.2994 72.3 15.9994 71 16.2994 69.7L17.9994 70.1C17.8994 70.7 17.9994 71.3 18.3994 71.7Z" fill="#66DB00"/>
<path d="M18.6 70.2C18.7 69.7 19.1 69.3 19.5 69.2C19.6 69.2 19.8 69.2 19.9 69.2C20 69.2 20.2 69.3 20.3 69.4C20.6 69.7 20.8 70.2 20.7 70.7C20.6 71.1 20.3 71.4 20 71.6C19.8 71.7 19.6 71.7 19.4 71.7C19.2 71.6 19 71.5 18.9 71.4C18.6 71 18.5 70.6 18.6 70.2Z" fill="#66DB00"/>
<path d="M24.9998 71.6C25.4998 69.1 24.6998 66.6 22.8998 65.3C22.2998 64.9 21.5998 64.6 20.8998 64.5C20.2998 64.4 19.5998 64.4 18.9998 64.6C16.9998 65.2 15.3998 67 14.7998 69.3C14.3998 71.2 14.7998 73.1 15.7998 74.5C16.3998 75.4 17.2998 76 18.2998 76.3C19.2998 76.6 20.3998 76.5 21.4998 76.1C23.1998 75.3 24.5998 73.7 24.9998 71.6ZM23.9998 71.4C23.5998 73.1 22.4998 74.5 21.0998 75.1C20.2998 75.5 19.3998 75.5 18.4998 75.3C17.6998 75.1 16.9998 74.6 16.3998 73.9C15.5998 72.8 15.1998 71.2 15.5998 69.6C15.9998 67.7 17.3998 66.2 19.0998 65.8C19.5998 65.7 20.1998 65.6 20.6998 65.7C21.2998 65.8 21.7998 66 22.2998 66.4C23.6998 67.3 24.3998 69.3 23.9998 71.4Z" fill="#66DB00"/>
<path d="M19.2002 66.5L19.4002 68.6C19.6002 68.6 19.8002 68.5 20.0002 68.6C20.2002 68.6 20.4002 68.7 20.6002 68.9L21.8002 67.1C21.1002 66.5 20.1002 66.2 19.2002 66.5Z" fill="#319B00"/>
<path d="M21.2 70.8001C21.2 71.0001 21.1 71.1001 21 71.2001C21.1 71.1001 21.2 70.9001 21.3 70.8001H21.2C21.2 70.7001 21.2 70.7001 21.2 70.8001Z" fill="#319B00"/>
<path d="M20.3002 72.5C20.5002 72.2 20.6002 72 20.8002 71.7C20.6002 71.9 20.4002 72 20.2002 72.2L20.3002 72.5Z" fill="#319B00"/>
<path d="M16.9999 73.2001L18.3999 71.7001C18.0999 71.3001 17.8999 70.7001 18.0999 70.0001L16.3999 69.6001C15.9999 71.0001 16.2999 72.3001 16.9999 73.2001Z" fill="#319B00"/>
<path d="M20.6998 70.6001C20.7998 70.1001 20.5998 69.6001 20.2998 69.3001C20.1998 69.2001 20.0998 69.1001 19.8998 69.1001C19.7998 69.1001 19.5998 69.1001 19.4998 69.1001C19.0998 69.2001 18.6998 69.6001 18.5998 70.1001C18.4998 70.5001 18.5998 70.9001 18.7998 71.2001C18.8998 71.4001 19.0998 71.5001 19.2998 71.5001C19.4998 71.6001 19.6998 71.5001 19.8998 71.4001C20.2998 71.4001 20.5998 71.0001 20.6998 70.6001Z" fill="#319B00"/>
<path d="M22.9 65.3C22.3 64.9 21.6 64.6 20.9 64.5C20.3 64.4 19.6 64.4 19 64.6C18.9 64.6 18.8 64.7 18.7 64.7C18.3 65.2 17.9 65.7 17.6 66.3C17.6 66.4 17.5 66.4 17.5 66.5C18 66.1 18.5 65.8 19.1 65.7C19.6 65.6 20.2 65.5 20.7 65.6C21.3 65.7 21.8 65.9 22.3 66.3C22.9 66.7 23.3 67.3 23.6 68C23.9 67.7 24.1 67.4 24.4 67.2C24.1 66.4 23.6 65.8 22.9 65.3Z" fill="#319B00"/>
<path d="M16.5 73.8C15.9 73 15.5 72 15.5 70.8C15.3 71.5 15.1 72.1 15 72.8C15.2 73.4 15.5 74.0001 15.8 74.5001C16.4 75.4001 17.3 76 18.3 76.3H18.4C18.5 76 18.7 75.6 18.8 75.3C18.7 75.3 18.6 75.3001 18.5 75.2001C17.7 75.0001 17 74.5 16.5 73.8Z" fill="#319B00"/>
<path d="M59.2998 14.7001C62.4998 12.1001 66.5998 10.6001 71.0998 10.6001C74.2998 10.6001 77.2998 11.4001 79.9998 12.8001C79.4998 17.4001 77.2998 21.6001 73.9998 24.6001C71.2998 27.1001 67.2998 27.1001 64.4998 24.8001C63.9998 24.4001 63.4998 23.9001 62.9998 23.5001C62.9998 23.4001 59.7998 19.7001 59.2998 14.7001Z" fill="#3A3A3A"/>
<path d="M78.0994 11.9001C78.6994 12.2001 79.3994 12.4001 79.9994 12.8001C79.7994 14.5001 79.3994 16.0001 78.7994 17.5001L65.8994 19.8001C65.9994 19.8001 69.0994 13.9001 78.0994 11.9001Z" fill="#444242"/>
<path d="M64.6 24.8002C64 24.3002 63.5 23.9002 63 23.4002C70.3 13.0002 80 12.7002 80 12.7002C79.5 17.4002 77.2 21.5002 74 24.5002C71.3 27.0002 67.4 27.1002 64.6 24.8002Z" fill="#7DA500"/>
<path d="M79.6995 14.7002C79.5995 15.2002 79.4995 15.6002 79.3995 16.0002C79.3995 16.1002 79.3995 16.1002 79.3995 16.2002C79.2995 16.7002 79.0995 17.1002 78.8995 17.6002C78.7995 17.7002 78.7995 17.9002 78.6995 18.0002C78.4995 18.4002 78.3995 18.8002 78.1995 19.1002C78.1995 19.2002 78.0996 19.3002 78.0996 19.4002C77.8996 19.8002 77.5995 20.2002 77.3995 20.6002C77.2995 20.7002 77.1995 20.9002 77.1995 21.0002C76.9995 21.3002 76.7996 21.6002 76.5996 21.9002C76.2996 22.0002 76.1995 22.1002 76.1995 22.2002C75.8995 22.6002 75.5995 22.9002 75.2995 23.3002C75.1995 23.4002 75.0996 23.5002 74.9996 23.7002C74.7996 23.9002 74.4995 24.2002 74.2995 24.4002C74.1995 24.5002 74.0996 24.6002 73.9996 24.7002C72.6996 25.9002 70.9995 26.5002 69.3995 26.5002C67.8995 24.2002 67.9996 20.9002 70.0996 18.7002C73.6996 15.0002 77.3996 13.5002 79.4996 12.8002C79.8996 12.8002 80.0996 12.7002 80.0996 12.7002C79.9996 13.2002 79.9995 13.7002 79.8995 14.2002C79.6995 14.4002 79.6995 14.6002 79.6995 14.7002Z" fill="#A7DD00"/>
<path d="M71.0998 10.6001C74.2998 10.6001 77.2998 11.4001 79.9998 12.8001C79.4998 17.4001 77.2998 21.6001 73.9998 24.6001C72.5998 25.9001 70.8998 26.5001 69.0998 26.5001C67.4998 26.5001 65.7998 25.9001 64.4998 24.8001C63.9998 24.4001 63.4998 23.9001 62.9998 23.5001C62.9998 23.5001 59.7998 19.8001 59.2998 14.8001C62.4998 12.1001 66.5998 10.6001 71.0998 10.6001ZM71.0998 9.6001C66.5998 9.6001 62.2998 11.1001 58.6998 14.0001C58.3998 14.2001 58.2998 14.5001 58.2998 14.9001C58.7998 20.2001 62.0998 24.0001 62.1998 24.2001C62.1998 24.2001 62.1998 24.3001 62.2998 24.3001C62.7998 24.8001 63.2998 25.2001 63.8998 25.7001C65.3998 26.9001 67.2998 27.6001 69.1998 27.6001C71.2998 27.6001 73.1998 26.8001 74.7998 25.4001C78.2998 22.1001 80.4998 17.7001 81.0998 13.0001C81.0998 12.6001 80.8998 12.2001 80.5998 12.0001C77.5998 10.4001 74.3998 9.6001 71.0998 9.6001Z" fill="#333333"/>
<path d="M65.699 14.1001C65.299 14.1001 64.899 14.0001 64.599 13.9001C62.899 13.3001 61.499 12.4001 60.599 11.2001C59.599 9.9001 59.899 8.0001 61.099 6.9001C61.999 6.1001 63.399 4.7001 65.299 2.3001C65.599 1.8001 66.199 1.6001 66.699 1.6001C67.399 1.6001 67.999 2.0001 68.299 2.6001C69.199 4.4001 70.499 8.0001 68.699 12.2001C68.199 13.3001 66.999 14.1001 65.699 14.1001Z" fill="#333333"/>
<path d="M66.6994 2C67.0994 2 67.5994 2.2 67.7994 2.7C68.7994 4.6 69.7994 7.9 68.1994 11.9C67.7994 13 66.6994 13.6 65.5994 13.6C65.2994 13.6 64.9994 13.5 64.6994 13.4C63.3994 13 61.9994 12.2 60.9994 10.9C60.1994 9.8 60.3994 8.2 61.4994 7.2C62.4994 6.4 63.8994 4.9 65.6994 2.5C65.9994 2.2 66.2994 2 66.6994 2ZM66.6994 1C65.9994 1 65.2994 1.3 64.8994 1.9C63.0994 4.3 61.6994 5.7 60.7994 6.4C59.2994 7.7 58.9994 9.9 60.1994 11.4C61.0994 12.7 62.5994 13.7 64.3994 14.3C64.7994 14.4 65.1994 14.5 65.6994 14.5C67.1994 14.5 68.5994 13.6 69.1994 12.2C71.0994 7.8 69.6994 4 68.7994 2.2C68.3994 1.5 67.5994 1 66.6994 1Z" fill="#333333"/>
<path d="M67.8999 2.7001C68.8999 4.6001 69.8999 7.90009 68.2999 11.9001C67.6999 13.3001 66.1999 13.9001 64.7999 13.4001C63.4999 13.0001 62.0999 12.2001 61.0999 10.9001C60.2999 9.80009 60.4999 8.2001 61.5999 7.2001C62.5999 6.4001 63.9999 4.90009 65.7999 2.50009C66.2999 1.80009 67.3999 1.9001 67.8999 2.7001Z" fill="#7DA500"/>
<path d="M65.6991 2.6001C65.8991 2.3001 66.1991 2.1001 66.4991 2.1001C66.5991 2.2001 66.6991 2.4001 66.6991 2.6001C67.2991 4.7001 67.5991 8.1001 65.0991 11.7001C64.5991 12.4001 63.7991 12.8001 62.9991 12.8001C62.1991 12.4001 61.3991 11.8001 60.7991 11.0001C59.9991 9.9001 60.1991 8.3001 61.2991 7.3001C62.4991 6.4001 63.8991 4.9001 65.6991 2.6001Z" fill="#A7DD00"/>
<path d="M27.6006 59.4998C16.6006 59.4998 7.60059 50.3998 7.60059 39.2998C7.60059 20.2998 22.9006 4.7998 41.7006 4.7998H46.7006C65.5006 4.7998 80.8006 20.2998 80.8006 39.1998C80.8006 50.2998 71.8006 59.3998 60.8006 59.3998H27.6006V59.4998Z" fill="#333333"/>
<path d="M46.8002 5.3999C65.4002 5.3999 80.4002 20.5999 80.4002 39.2999C80.4002 50.1999 71.7002 58.9999 60.9002 58.9999H27.6002C16.8002 58.9999 8.1002 50.1999 8.1002 39.2999C8.1002 20.4999 23.2002 5.2999 41.7002 5.2999H46.8002V5.3999ZM46.8002 4.3999H41.8002C22.7002 4.3999 7.2002 20.0999 7.2002 39.3999C7.2002 50.7999 16.4002 60.0999 27.7002 60.0999H61.0002C72.3002 60.0999 81.5002 50.7999 81.5002 39.3999C81.4002 19.9999 65.9002 4.3999 46.8002 4.3999Z" fill="#333333"/>
<path d="M60.8996 59H27.5996C16.7996 59 8.09961 50.2 8.09961 39.3C8.09961 20.5 23.1996 5.30005 41.6996 5.30005H46.6996C65.2996 5.30005 80.2996 20.5 80.2996 39.2C80.3996 50.2 71.5996 59 60.8996 59Z" fill="#66DB00"/>
<path d="M63.9994 55.0001C72.7994 55.0001 79.9994 47.5001 80.2994 38.1001C79.7994 24.9001 71.7994 13.6001 60.4994 8.4001C57.8994 7.5001 55.0994 7.1001 52.1994 7.1001H47.9994C32.4994 7.1001 19.8994 20.7001 19.8994 37.5001C19.8994 47.1001 27.1994 55.0001 36.1994 55.0001H63.9994Z" fill="#A3FD00"/>
<path d="M35.1002 35.2001C39.4632 35.2001 43.0002 31.6632 43.0002 27.3001C43.0002 22.9371 39.4632 19.4001 35.1002 19.4001C30.7371 19.4001 27.2002 22.9371 27.2002 27.3001C27.2002 31.6632 30.7371 35.2001 35.1002 35.2001Z" fill="#333333"/>
<path d="M35.1002 19.8C39.2002 19.8 42.5002 23.1 42.5002 27.2C42.5002 31.3 39.2002 34.6 35.1002 34.6C31.0002 34.6 27.7002 31.3 27.7002 27.2C27.6002 23.2 31.0002 19.8 35.1002 19.8ZM35.1002 18.8C30.4002 18.8 26.7002 22.6 26.7002 27.2C26.7002 31.9 30.5002 35.6 35.1002 35.6C39.7002 35.6 43.5002 31.8 43.5002 27.2C43.5002 22.6 39.7002 18.8 35.1002 18.8Z" fill="#333333"/>
<path d="M35.1002 34.7001C39.1871 34.7001 42.5002 31.3871 42.5002 27.3001C42.5002 23.2132 39.1871 19.9001 35.1002 19.9001C31.0133 19.9001 27.7002 23.2132 27.7002 27.3001C27.7002 31.3871 31.0133 34.7001 35.1002 34.7001Z" fill="#EDFF03"/>
<path d="M35.1 29.9C34.8 29.9 34.4 29.8 34.1 29.7L33 32.5C34.4 33.1 35.9 33 37.3 32.4L36.1 29.7C35.8 29.8 35.4 29.9 35.1 29.9Z" fill="#333333"/>
<path d="M38.2 22.7L36.5 25.1999C37.2 25.6999 37.6 26.5 37.6 27.3H40.6C40.7 25.4 39.7 23.7 38.2 22.7Z" fill="#333333"/>
<path d="M33.6004 25.2L31.9004 22.8C30.4004 23.8 29.4004 25.5 29.4004 27.4H32.4004C32.5004 26.4 32.9004 25.6 33.6004 25.2Z" fill="#333333"/>
<path d="M33.4004 27.3001C33.4004 28.0001 33.8004 28.6001 34.5004 28.9001C34.7004 29.0001 34.9004 29.0001 35.1004 29.0001C35.3004 29.0001 35.6004 28.9001 35.8004 28.9001C36.4004 28.6001 36.8004 28.0001 36.8004 27.3001C36.8004 26.7001 36.5004 26.2001 36.1004 25.9001C35.8004 25.7001 35.5004 25.6001 35.1004 25.6001C34.7004 25.6001 34.4004 25.7001 34.2004 25.9001C33.7004 26.2001 33.4004 26.7001 33.4004 27.3001Z" fill="#333333"/>
<path d="M32.0996 14.1001H37.9996" stroke="#333333" stroke-width="2" stroke-miterlimit="10" stroke-linecap="round" stroke-linejoin="round"/>
<path d="M66.7002 14.1001H72.6002" stroke="#333333" stroke-width="2" stroke-miterlimit="10" stroke-linecap="round" stroke-linejoin="round"/>
<path d="M24.3002 14.2999C20.8002 11.5999 16.5002 9.8999 11.7002 9.8999C8.3002 9.8999 5.1002 10.7999 2.2002 12.1999C2.8002 17.0999 5.10019 21.4999 8.60019 24.6999C11.4002 27.2999 15.8002 27.3999 18.7002 24.9999C19.3002 24.4999 19.8002 24.0999 20.3002 23.5999C20.3002 23.5999 23.7002 19.5999 24.3002 14.2999Z" fill="#3A3A3A"/>
<path d="M9.4998 11.2999C10.9998 11.2999 12.4998 11.4999 13.9998 11.7999C19.4998 12.9999 22.3998 18.1999 20.8998 22.7999C21.8998 21.3999 23.7998 18.1999 24.1998 14.2999C20.6998 11.5999 16.3998 9.8999 11.5998 9.8999C8.2998 9.8999 5.0998 10.6999 2.2998 12.0999C4.6998 11.4999 7.0998 11.1999 9.4998 11.2999Z" fill="#444242"/>
<path d="M18.6002 25.1C19.2002 24.6 19.8002 24.1 20.3002 23.6C12.5002 12.5 2.2002 12.2 2.2002 12.2C2.8002 17.2 5.10019 21.6 8.60019 24.8C11.4002 27.4 15.7002 27.5 18.6002 25.1Z" fill="#A7DD00"/>
<path d="M2.6002 14.2999C2.7002 14.7999 2.8002 15.2999 3.0002 15.6999C3.0002 15.7999 3.0002 15.7999 3.0002 15.8999C3.2002 16.3999 3.3002 16.8999 3.5002 17.3999C3.6002 17.4999 3.6002 17.6999 3.7002 17.7999C3.9002 18.1999 4.1002 18.5999 4.3002 18.9999C4.3002 19.0999 4.4002 19.1999 4.4002 19.2999C4.6002 19.7999 4.9002 20.1999 5.2002 20.5999C5.3002 20.6999 5.4002 20.8999 5.5002 20.9999C5.7002 21.2999 5.9002 21.6999 6.2002 21.9999C6.1002 22.0999 6.2002 22.1999 6.3002 22.2999C6.6002 22.6999 6.9002 23.0999 7.2002 23.3999C7.3002 23.4999 7.4002 23.6999 7.6002 23.7999C7.8002 24.0999 8.1002 24.2999 8.4002 24.5999C8.5002 24.6999 8.6002 24.7999 8.7002 24.8999C10.1002 26.1999 11.9002 26.7999 13.6002 26.7999C15.2002 24.3999 15.1002 20.8999 12.8002 18.4999C9.0002 14.5999 5.0002 12.8999 2.8002 12.1999C2.4002 12.1999 2.2002 12.0999 2.2002 12.0999C2.3002 12.6999 2.4002 13.1999 2.5002 13.6999C2.5002 13.9999 2.5002 14.1999 2.6002 14.2999Z" fill="#EDFF03"/>
<path d="M11.6999 9.8999C16.4999 9.8999 20.7999 11.5999 24.2999 14.2999C23.9999 17.0999 22.9999 19.3999 21.9999 21.0999C21.1999 22.5999 20.0999 23.8999 18.7999 24.9999C18.7999 24.9999 18.7999 24.9999 18.6999 25.0999C17.2999 26.2999 15.4999 26.8999 13.7999 26.8999C11.8999 26.8999 10.0999 26.1999 8.5999 24.8999C5.0999 21.5999 2.7999 17.1999 2.1999 12.1999C4.9999 10.6999 8.1999 9.8999 11.6999 9.8999ZM11.6999 8.8999C8.2999 8.8999 4.7999 9.7999 1.7999 11.3999C1.3999 11.5999 1.1999 11.9999 1.2999 12.3999C1.8999 17.3999 4.1999 22.0999 7.9999 25.4999C9.5999 26.9999 11.6999 27.7999 13.8999 27.7999C15.8999 27.7999 17.8999 27.0999 19.4999 25.7999L19.5999 25.6999C20.9999 24.4999 22.1999 23.0999 23.0999 21.4999C23.9999 19.8999 25.1999 17.2999 25.4999 14.2999C25.4999 13.9999 25.3999 13.5999 25.0999 13.3999C21.0999 10.4999 16.4999 8.8999 11.6999 8.8999Z" fill="#333333"/>
<path d="M26.1004 14.1C24.8004 14.1 23.6004 13.3 23.1004 12.1C21.3004 7.9 22.6004 4.3 23.5004 2.5C23.8004 1.9 24.4004 1.5 25.1004 1.5C25.7004 1.5 26.2004 1.8 26.5004 2.2C28.3004 4.6 29.8004 6 30.7004 6.8C32.0004 7.9 32.2005 9.8 31.3005 11.1C30.4005 12.3 29.1004 13.2 27.3004 13.8C26.8004 14 26.4004 14.1 26.1004 14.1Z" fill="#333333"/>
<path d="M25 2C25.4 2 25.8 2.2 26 2.5C27.8 4.9 29.2 6.3 30.2 7.2C31.3 8.1 31.5 9.7 30.7 10.9C29.7 12.2 28.2 13 27 13.4C26.7 13.5 26.4 13.6 26.1 13.6C25 13.6 24 13 23.5 11.9C21.8 8 22.9 4.6 23.9 2.7C24.1 2.3 24.5 2 25 2ZM25 1C24.1 1 23.4 1.5 23 2.2C22 4 20.7 7.8 22.6 12.2C23.2 13.6 24.6 14.5 26.1 14.5C26.5 14.5 27 14.4 27.4 14.3C29.2 13.7 30.7 12.7 31.6 11.4C32.7 9.8 32.5 7.6 31 6.4C30.1 5.7 28.7 4.3 26.9 1.9C26.4 1.4 25.7 1 25 1Z" fill="#333333"/>
<path d="M23.7999 2.7001C22.7999 4.6001 21.7999 7.90009 23.3999 11.9001C23.9999 13.3001 25.4999 13.9001 26.8999 13.4001C28.1999 13.0001 29.5999 12.2001 30.5999 10.9001C31.3999 9.80009 31.1999 8.2001 30.0999 7.2001C29.0999 6.4001 27.6999 4.90009 25.8999 2.50009C25.3999 1.80009 24.2999 1.9001 23.7999 2.7001Z" fill="#A7DD00"/>
<path d="M25.9999 2.6001C25.7999 2.3001 25.4999 2.1001 25.1999 2.1001C25.0999 2.2001 24.9999 2.4001 24.9999 2.6001C24.3999 4.7001 24.0999 8.1001 26.5999 11.7001C27.0999 12.4001 27.8999 12.8001 28.6999 12.8001C29.4999 12.4001 30.2999 11.8001 30.8999 11.0001C31.6999 9.9001 31.4999 8.3001 30.3999 7.3001C29.2999 6.4001 27.7999 4.9001 25.9999 2.6001Z" fill="#EDFF03"/>
<path d="M29.1597 7.98943C29.4548 7.73969 29.0867 6.81948 28.3375 5.93409C27.5882 5.0487 26.7416 4.53341 26.4465 4.78315C26.1514 5.03289 26.5195 5.9531 27.2687 6.83849C28.0179 7.72388 28.8646 8.23917 29.1597 7.98943Z" fill="white"/>
<path d="M69.7 35.2001C73.1242 35.2001 75.9 31.6632 75.9 27.3001C75.9 22.9371 73.1242 19.4001 69.7 19.4001C66.2758 19.4001 63.5 22.9371 63.5 27.3001C63.5 31.6632 66.2758 35.2001 69.7 35.2001Z" fill="#333333"/>
<path d="M69.7 19.8C72.9 19.8 75.4 23.1 75.4 27.2C75.4 31.3 72.8 34.6 69.7 34.6C66.5 34.6 64 31.3 64 27.2C63.9 23.2 66.5 19.8 69.7 19.8ZM69.7 18.8C66 18.8 63 22.6 63 27.2C63 31.9 66 35.6 69.7 35.6C73.4 35.6 76.4 31.8 76.4 27.2C76.4 22.6 73.4 18.8 69.7 18.8Z" fill="#333333"/>
<path d="M69.7 34.7001C72.848 34.7001 75.4 31.3871 75.4 27.3001C75.4 23.2132 72.848 19.9001 69.7 19.9001C66.552 19.9001 64 23.2132 64 27.3001C64 31.3871 66.552 34.7001 69.7 34.7001Z" fill="#EDFF03"/>
<path d="M69.7002 29.9C69.4002 29.9 69.2002 29.8 69.0002 29.7L68.2002 32.5C69.3002 33.1 70.5002 33 71.5002 32.4L70.6002 29.7C70.2002 29.8 69.9002 29.9 69.7002 29.9Z" fill="#333333"/>
<path d="M72.0998 22.7L70.7998 25.1999C71.2998 25.6999 71.6998 26.5 71.6998 27.3H73.9998C73.9998 25.4 73.1998 23.7 72.0998 22.7Z" fill="#333333"/>
<path d="M68.4998 25.1999L67.1998 22.7C66.0998 23.7 65.2998 25.4 65.2998 27.3H67.5998C67.6998 26.4 67.9998 25.5999 68.4998 25.1999Z" fill="#333333"/>
<path d="M68.2998 27.3001C68.2998 28.0001 68.5998 28.6001 69.0998 28.9001C69.1998 29.0001 69.3998 29.0001 69.5998 29.0001C69.7998 29.0001 69.9998 28.9001 70.0998 28.9001C70.5998 28.6001 70.8998 28.0001 70.8998 27.3001C70.8998 26.7001 70.6998 26.2001 70.2998 25.9001C70.0998 25.7001 69.7998 25.6001 69.5998 25.6001C69.2998 25.6001 69.0998 25.7001 68.8998 25.9001C68.5998 26.2001 68.2998 26.7001 68.2998 27.3001Z" fill="#333333"/>
<path d="M66.9004 59H42.2004C34.3004 59 27.9004 52.7 27.9004 45C27.9004 37.3 34.3004 31 42.2004 31H68.8004C75.4004 31 80.8004 36.3 80.8004 42.8V45.3C80.8004 52.9 74.6004 59 66.9004 59Z" fill="#A7DD00"/>
<path d="M68.8002 31H45.8002C44.0002 31 42.3002 31.4 40.7002 32C36.8002 34.2 34.2002 38.3 34.2002 43C34.2002 50 40.0002 55.7 47.2002 55.7H69.6002C69.6002 55.7 69.6002 55.7 69.7002 55.7C73.2002 55.7 76.6002 53.9 78.6002 51C80.0002 49 80.8002 46.6 80.8002 44V42.8C80.8002 36.3 75.4002 31 68.8002 31Z" fill="#EDFF03"/>
<path d="M75.5996 48.3C77.2565 48.3 78.5996 45.4793 78.5996 42C78.5996 38.5206 77.2565 35.7 75.5996 35.7C73.9428 35.7 72.5996 38.5206 72.5996 42C72.5996 45.4793 73.9428 48.3 75.5996 48.3Z" fill="#A7DD00"/>
<path d="M44.5 35.7C42.9 35.7 41.5 38.5 41.5 42C41.5 45.5 42.8 48.3 44.5 48.3C46.2 48.3 47.5 45.5 47.5 42C47.4 38.5 46.1 35.7 44.5 35.7Z" fill="#A7DD00"/>
<path d="M68.8004 31C75.4004 31 80.8004 36.3 80.8004 42.8V45.3C80.8004 52.9 74.6004 59 66.9004 59H42.2004C34.3004 59 27.9004 52.7 27.9004 45C27.9004 37.3 34.3004 31 42.2004 31H68.8004V31ZM68.8004 30H42.2004C33.8004 30 26.9004 36.7 26.9004 45C26.9004 53.3 33.7004 60 42.2004 60H66.9004C75.1004 60 81.8004 53.4 81.8004 45.3V42.8C81.8004 35.7 75.9004 30 68.8004 30Z" fill="#333333"/>
<path d="M59.5004 34.8C65.0785 34.8 69.6004 34.2179 69.6004 33.5C69.6004 32.782 65.0785 32.2 59.5004 32.2C53.9223 32.2 49.4004 32.782 49.4004 33.5C49.4004 34.2179 53.9223 34.8 59.5004 34.8Z" fill="white"/>
<path d="M74.8008 48.7001C76.4576 48.7001 77.8008 45.8795 77.8008 42.4001C77.8008 38.9207 76.4576 36.1001 74.8008 36.1001C73.1439 36.1001 71.8008 38.9207 71.8008 42.4001C71.8008 45.8795 73.1439 48.7001 74.8008 48.7001Z" fill="#333333"/>
<path d="M43.6006 36.1001C42.0006 36.1001 40.6006 38.9001 40.6006 42.4001C40.6006 45.9001 41.9006 48.7001 43.6006 48.7001C45.3006 48.7001 46.6006 45.9001 46.6006 42.4001C46.6006 38.9001 45.3006 36.1001 43.6006 36.1001Z" fill="#333333"/>
<path d="M11.4998 44.9C11.1998 44.9 10.8998 44.8 10.6998 44.7L9.7998 47.8C10.9998 48.5 12.2998 48.5 13.4998 47.9L12.4998 44.7C12.0998 44.9 11.7998 45 11.4998 44.9Z" fill="#319B00"/>
<path d="M14.2998 36.5999L12.7998 39.4999C13.3998 39.9999 13.7998 40.8999 13.7998 41.9999H16.4998C16.4998 39.6999 15.5998 37.6999 14.2998 36.5999Z" fill="#319B00"/>
<path d="M10.2994 39.5999L8.89941 36.8999C7.69941 38.0999 6.89941 39.9999 6.89941 42.0999H9.29941C9.29941 40.9999 9.69941 40.0999 10.2994 39.5999Z" fill="#319B00"/>
<path d="M10.0996 41.9998C10.0996 42.7998 10.4996 43.4998 10.9996 43.7998C11.1996 43.8998 11.2996 43.8998 11.4996 43.8998C11.6996 43.8998 11.8996 43.7998 12.0996 43.6998C12.5996 43.3998 12.9996 42.6998 12.9996 41.8998C12.9996 41.1998 12.6996 40.5998 12.3996 40.2998C12.1996 40.0998 11.8996 39.9998 11.5996 39.9998C11.2996 39.9998 10.9996 40.0998 10.7996 40.2998C10.2996 40.6998 10.0996 41.2998 10.0996 41.9998Z" fill="#319B00"/>
<path d="M15.6998 33.8999C14.3998 32.8999 12.9998 32.3999 11.4998 32.4999C10.0998 32.5999 8.7998 33.2999 7.6998 34.2999C5.8998 36.0999 4.7998 38.8999 4.7998 41.8999C4.7998 41.8999 4.7998 41.8999 4.7998 41.9999C4.7998 45.6999 6.39981 48.9999 8.9998 50.4999C9.7998 50.9999 10.6998 51.2999 11.5998 51.2999C12.5998 51.3999 13.5998 51.1999 14.4998 50.6999C17.2998 49.2999 19.0998 45.8999 19.1998 41.8999C19.1998 41.8999 19.1998 41.8999 19.1998 41.7999C19.0998 38.6999 17.7998 35.6999 15.6998 33.8999ZM17.5998 41.9999C17.5998 45.2999 15.9998 48.0999 13.7998 49.1999C13.0998 49.5999 12.2998 49.7999 11.3998 49.6999C10.5998 49.6999 9.89981 49.3999 9.29981 48.9999C7.29981 47.7999 5.7998 45.0999 5.7998 41.9999C5.7998 39.4999 6.6998 37.1999 8.1998 35.6999C9.0998 34.7999 10.1998 34.2999 11.3998 34.1999C12.5998 34.0999 13.7998 34.5999 14.7998 35.3999C16.4998 36.7999 17.5998 39.1999 17.5998 41.9999Z" fill="#319B00"/>
<path d="M51.1002 7.49985C51.1002 7.29985 51.2002 7.19985 51.4002 7.09985L48.9002 6.09985C48.2002 6.69985 48.0002 7.39985 48.4002 8.19985L51.2002 8.09985C51.1002 7.89985 51.0002 7.69985 51.1002 7.49985Z" fill="#319B00"/>
<path d="M57.8 10.4999L55.5 9.09985C55 9.39985 54.2 9.49985 53.3 9.29985L53 10.8999C54.9 11.2999 56.7 11.0999 57.8 10.4999Z" fill="#319B00"/>
<path d="M55.7002 7.69981L58.1002 7.29981C57.3002 6.39981 55.8002 5.6998 54.0002 5.2998L53.7002 6.69981C54.6002 6.89981 55.3002 7.29981 55.7002 7.69981Z" fill="#319B00"/>
<path d="M53.7004 7.19988C53.0004 7.09988 52.4004 7.19987 52.1004 7.39987C52.0004 7.49987 51.9004 7.59988 51.9004 7.69988C51.9004 7.79988 51.9004 7.89987 52.0004 8.09987C52.2004 8.49987 52.7004 8.79987 53.4004 8.89987C54.0004 8.99987 54.5004 8.99988 54.8004 8.79988C55.0004 8.69988 55.1004 8.49987 55.2004 8.39987C55.2004 8.19987 55.2004 7.99987 55.0004 7.89987C54.7004 7.49987 54.3004 7.29988 53.7004 7.19988Z" fill="#319B00"/>
<path d="M59.9001 11.6999C60.9001 11.0999 61.5001 10.3999 61.5001 9.49991C61.6001 8.69991 61.2001 7.79991 60.4001 6.99991C59.1001 5.69991 56.8001 4.59991 54.3001 4.09991C54.3001 4.09991 54.3001 4.09991 54.2001 4.09991C51.1001 3.49991 48.2001 3.89991 46.6001 5.19991C46.1001 5.59991 45.8001 5.99991 45.6001 6.59991C45.4001 7.19991 45.5001 7.79991 45.8001 8.39991C46.6001 10.1999 49.4001 11.8999 52.7001 12.4999C52.7001 12.4999 52.7001 12.4999 52.8001 12.4999C55.5001 12.8999 58.2001 12.6999 59.9001 11.6999ZM52.9001 11.5999C50.1001 11.0999 47.9001 9.69991 47.3001 8.29991C47.1001 7.79991 47.0001 7.29991 47.1001 6.79991C47.2001 6.39991 47.5001 5.99991 47.9001 5.69991C49.1001 4.69991 51.6001 4.29991 54.2001 4.79991C56.3001 5.19991 58.2001 6.09991 59.2001 7.19991C59.8001 7.89991 60.2001 8.59991 60.1001 9.29991C60.0001 9.99991 59.5001 10.5999 58.7001 11.0999C57.4001 11.7999 55.2001 11.9999 52.9001 11.5999Z" fill="#319B00"/>
<path d="M64.0002 46.2H57.9002C55.6002 46.2 53.7002 48.1 53.7002 50.4C53.7002 51 54.2002 51.5 54.8002 51.5H67.1002C67.7002 51.5 68.2002 51 68.2002 50.4C68.2002 48.1 66.3002 46.2 64.0002 46.2Z" fill="#333333"/>
<path d="M64.9998 49.5C62.8998 49.5 62.7998 50.8 60.3998 50.8C57.9998 50.8 58.1998 49.5 56.2998 49.5C54.6998 49.5 54.3998 51 54.2998 51.5C54.2998 51.5 54.4998 51.6 54.5998 51.6C54.6998 51.6 55.1998 51.7 55.5998 51.9C55.6998 52 55.7998 52 55.8998 52.1C56.8998 53 56.3998 54.9 57.7998 54.9C59.6998 54.9 59.7998 53.4 59.7998 53.4C59.7998 53.4 59.8998 52 61.7998 52C63.6998 52 62.6998 53.6 64.7998 53.6C66.8998 53.6 67.0998 49.5 64.9998 49.5Z" fill="#A3FD00"/>
<path d="M66.5998 51.6C66.5998 50.6 66.0998 49.5 64.9998 49.5C62.8998 49.5 62.7998 50.8 60.3998 50.8C57.9998 50.8 58.1998 49.5 56.2998 49.5C54.6998 49.5 54.3998 51 54.2998 51.5C54.3998 51.6 54.5998 51.6 54.6998 51.6H66.5998Z" fill="#66DB00"/>
</svg>
